/* XPM */
static char *_e229b1211d0458595506d6f57943e81DWYjDBiJJnlxe42i[] = {
/* columns rows colors chars-per-pixel */
"32 32 22 1 ",
"  c #966C6C",
". c #392B1C",
"X c #1E3C09",
"o c #937C65",
"O c #487E23",
"+ c #846B52",
"@ c #DECBB7",
"# c #2E242F",
"$ c #694F62",
"% c white",
"& c #5D4934",
"* c #AE8021",
"= c #609F36",
"- c #B7A089",
"; c #D25F27",
": c #DBA637",
"> c #3E3546",
", c #AB4818",
"< c #325D14",
"1 c black",
"2 c #FCC552",
"3 c #FFE8B9",
/* pixels */
">>   $$$$   ######       #######",
"> $$$$$$$$$$$ ### $$$$$$$  $$ ##",
" $$$$$$$$$$$$$ # $$$$$$$$$$$$$ #",
" $$$$$$$$$$$$$ # $$$$$$$$$$$$$ #",
" $$$$$$$$$$$$$$# $$$$$$$$$$$$$ #",
"$$$$$$$$$$$$$$%XXXXXXX%$$$$$$$$#",
"$$$$$$$$$$$$$%X=======X%$$$$$$ #",
"$$$$$$$$$$$$%X=OOOOOOO=X%$$$$$ #",
"$$$$$$$$$$$$%XOOOOOOOOOX%$$$$$$#",
"$$$$$$$$$$$$%XO1%OOOOOOX%$$$$$$#",
"$$$$$$$$$$$$%XO11OOO*****%$$$$$#",
"$$$$$$$$$$$$%XO==OO*22233*%$$$$#",
" $$$$$$ $$$$%XOOOOO*::::::*$$$ #",
"# $$$$ # $$$%X<OOOO<******%$$$ #",
"##    ###%%% %X<OOOO<<X%%% $  ##",
"########%ooo%#%X%%%%%X%#########",
"#      %o%%%o%%.&&&&&.%$  ### ##",
"   $$$%o%@@@%oo+++++&.%$$ #  $ #",
"  $$$$%o@@oo@@@%%++++&.%$$# $$ #",
" $$$$$%o@o@@@@@@@%++++.%$$$>$$ #",
" $$$$$%o@.+@@@@@@@++++.%$$$$$$$#",
" $$$$$%o-.++@@@@@++++&.%$$$$$$$#",
"$$$$$$%o--.+++++++.&&&.%$$$$$$ #",
"$$$$$$$%o--.......&&&.%$$$$$$$ #",
"$$$$$$$$%o-------&&&.%$$$$$$$$ #",
" $$$$$$$$%oooooo....%$$$$$$$$$ #",
"$$$$$$$$$$%;;;%%%,,%$$$$$$$$$$ #",
"$$$$$$$$$$%;;;;%%,,,%$$$$$$$$$ #",
" $$$$$$$$$$$$$ #$$$$$$$$$$$$$$ #",
" $$$$$$$$$$$$$ # $$$$$$$$$$ > ##",
"# $$  $$$  $  ###  $$  $$  # ###",
"################################"
};
