/* XPM */
static char *f967542c00ec4b5cc01751463c3063e2CJb97KnZpqDhOePw[] = {
/* columns rows colors chars-per-pixel */
"32 32 6 1 ",
"  c #694F62",
". c #2E242F",
"X c #966C6C",
"o c #F9C22B",
"O c #FBFF86",
"+ c #3E3546",
/* pixels */
"..XXX XX+    XX....XXXX    XXXX.",
".XXX           X..XX         XXX",
".XX            X..X           XX",
".X              .X             X",
".X             X.               ",
".              X.X             X",
".               .X             X",
".               .              X",
".X              .               ",
".X             X.X              ",
".X             X.               ",
".X        ....  .               ",
".X       .OOOO. ..X            X",
".XX     .OooooO.........       X",
"..XXXXX .Oo..ooOOOOOOOOO. XX XX.",
".........Oo..ooooooooooo........",
"..XXX X .Oooooo...o.o.o..XXXX X.",
".XXX    ..oooo......o.o..      X",
".XX     .......X........       X",
".X        .... X.X             X",
".X             X.X             X",
".X              .X              ",
".X             X.X             X",
".              X.X             X",
".      +X     X..               ",
".X      +X+++++ .               ",
".        +X     .               ",
".        +      .X              ",
".X             X.X             X",
".X             X.XX            X",
"..X   XX  XX XX...XX  XX  XX XX.",
"................................"
};
