/* XPM */
static char *a0137d79d88242b1cd0b7a6984f203ebvjDDzGXNYYZaJNLB[] = {
/* columns rows colors chars-per-pixel */
"32 32 9 1 ",
"  c #694F62",
". c #2E242F",
"X c #6E2727",
"o c #45293F",
"O c #9E4539",
"+ c #966C6C",
"@ c #7F708A",
"# c #9BABB2",
"$ c #3E3546",
/* pixels */
"....XXOOXXXXXXXXXXXXXXXXOOXX....",
"...XOOXXXXXXXXXXXXXXXXXXXXOOX...",
"..XOXXXXXXXXXXXXXXXXXXXXXXXXOX..",
".XOXXXXXXXXXXXXXXXXXXXXXXXXXXOX.",
".OXXXXXXXXXXXXXXXXXXXXXXXXXXXXO.",
".XXXXXXXXXXXXXXXXXXXXXXXXXXXXXX.",
"..XXXXXXXXXXXXXXXXXXXXXXXXXXXXX.",
"#@.XXXXXXXXXXXXXXXXXXXXXXXXXXXX.",
"#@.XXXXXXXXXXXXXXXXXXXXXXXXXXXX.",
"#@.XXXXXXXXXXXXXXXXXXXXXXXXXXXX.",
"..XXXXXXXXXXXXXXXXXXXXXXXXXXXXX.",
".OOOOOOOOOOOOOOOOOOOOOOOOOOOOOX.",
".OXXXXXXXXXXXXXXXXXXXXXXXXXXXXO.",
".OXXXXXXXXXXXXXXXXXXXXXXXX##XXO.",
".OXXXXXXXXXXXXXXXXXXXXXXX#XX@XO.",
".OXXXXXXXXXXXXXXXXXXXXXXX#XX@XO.",
"..oooooooooooooooooooooooo@@ooo.",
"#@.oooooooooooooooooooooooooooo.",
"#@.XXXXXXXXXXXXXXXXXXXXXXXXXXXX.",
"#@.XXXXXXXXXXXXXXXXXXXXXXXXXXXX.",
"..XXXXXXXXXXXXXXXXXXXXXXXXXXXXX.",
".XXXXXXXXXXXXXXXXXXXXXXXXXXXXXX.",
".XXXXXXXXXXXXXXXXXXXXXXXXXXXXXX.",
".XXXXXXXXXXXXXXXXXXXXXXXXXXXXXX.",
"................................",
"..++  $+ +++   +  + ++ +++++++..",
".+    $$                      +.",
".       $$                     .",
".                       $$     .",
".+                      $     +.",
"..++        ++         $ +++++..",
"...++++++  ....++++++++........."
};
