/* XPM */
static char *_7d03e27679049f2d6788d04cc77b8c6u0VDDWuOKSnzANSk[] = {
/* columns rows colors chars-per-pixel */
"32 32 25 1 ",
"  c #2F2E2F",
". c #4D3A61",
"X c #754F7E",
"o c #654870",
"O c #46345E",
"+ c #BE9BB0",
"@ c #523D63",
"# c #564064",
"$ c #3E2F5A",
"% c #85578E",
"& c #41315B",
"* c #6F4C79",
"= c #5E4469",
"- c #352E40",
"; c #80558A",
": c #533F57",
"> c #3A2F50",
", c #3B343C",
"< c #7B5285",
"1 c #372F46",
"2 c #59445D",
"3 c #9B7599",
"4 c #46384B",
"5 c #AE87A6",
"6 c #7F6B78",
/* pixels */
"                                ",
"++++++++3=:3++++++++++++++5o4%++",
"%%%%%%%%36o5%%%%%#;%%oX%%%3325%%",
"###<o##*%=:%<#=;###<o#####oo4<##",
"#&@###O$o=:*$&##########.O#4,###",
"$$$$$$$$$1-$$$$$$##&$$$$$$$>-$$$",
"$$$$$$$$1  -$$$$$$$$$$$$$$1   $$",
"                                ",
"  <%%%%%%%%%%%%%%%,  o%%%%%%%%%%",
" ;%%%%%%%%%X#=%%%%%,*%%%%%X#o%%%",
" ;%=#Xo##*X###=;#;%,*%o**####=;#",
" ;O@###O.##.$$&##&<,*@.###.$O###",
" $$$@#O$$O######$$$ >$$.#.$O##@$",
" $$$$$$$$$$$O#@$$$$ >$$$$$$$$$$$",
"  >$$$$$$$$$$$$$$$   >$$$$$$$$$$",
"                                ",
"%%%%%%:  :%%%%%%%%%%%%:  :%%%%%%",
"%%%=<%%:2%%%%%;#%%%%%%%:2%%Xo%%%",
"#;=##X%:2%X#o<####;=#X%:2%X###=%",
"#&@###X:2*####@&##&@##X:2*#.O###",
"##&@##O-1O###@$&###&@#O-1O##@&##",
"##&$@O$-1$O.$$&##&@##O$-1$O###@$",
"#&$$$$$-1$$$$$$$$$$@O$$-1$$O@$$$",
"$$$$$$-  -$$$$$$$$$$$$-  -$$$$$$",
"                                ",
"%   *%%%%%%%%%%%%   *%%%%%%%%%%%",
"%%,X%%%%%*o%%<=%%%,X%%%%%%%Xo%%%",
"%%,X%o#**##o<###%%,X%o#**#####=%",
"$;,X..#####.O###$;,X..#####.O@&#",
"$$ >$$.O$O####@$$$ >$$.###.$O###",
"$$ >$$$$$$$$O@$$$$ >$$$..$$$$$&#",
"$   >$$$$$$$$$$$$   >$$$$$$$$$$$"
};
